# File created by Blade
# Date/Time:  Fri Jan 16 15:45:56 2015
#---------------------------------------------------------
:version 1.10
:name HOM
:units
  mass 1.0
  length 1.000000
  angle deg
:documentation
     Acclaim Skeleton File
:root
   axis xyz
   order TX TY TZ RX RY RZ
   position 0.000000 0.000000 0.000000
   orientation 0 0 0
:bonedata
   begin
      id 1
      name Spine_dum
      direction 0.000000 1.000000 0.000000
      length 7.170412
      axis 0.0 0.0 0.0 xyz
   end
   begin
      id 2
      name LeftUpLeg_dum
      direction 1.000000 0.000000 0.000000
      length 4.318350
      axis 0.0 0.0 0.0 xyz
   end
   begin
      id 3
      name RightUpLeg_dum
      direction -1.000000 0.000000 0.000000
      length 4.318350
      axis 0.0 0.0 0.0 xyz
   end
   begin
      id 4
      name Spine
      direction 0.000000 1.000000 0.000000
      length 0.000000
      axis 0.0 0.0 0.0 xyz
      dof rx ry rz
   end
   begin
      id 5
      name Spine_dum1
      direction 0.000000 1.000000 0.000000
      length 14.276153
      axis 0.0 0.0 0.0 xyz
   end
   begin
      id 6
      name Spine_dum2
      direction 0.000000 1.000000 0.000000
      length 10.718243
      axis 0.0 0.0 0.0 xyz
   end
   begin
      id 7
      name Spine_dum3
      direction 0.000000 1.000000 0.000000
      length 10.718243
      axis 0.0 0.0 0.0 xyz
   end
   begin
      id 8
      name Head
      direction 0.000000 1.000000 0.000000
      length 4.527550
      axis 0.0 0.0 0.0 xyz
      dof rx ry rz
   end
   begin
      id 9
      name LeftShoulder
      direction 1.000000 0.000000 0.000000
      length 7.058872
      axis 0.0 0.0 -90.0 xyz
      dof rx ry rz
   end
   begin
      id 10
      name LeftArm
      direction 1.000000 0.000000 0.000000
      length 10.955525
      axis 0.0 0.0 -90.0 xyz
      dof rx ry rz
   end
   begin
      id 11
      name LeftForeArm
      direction 1.000000 0.000000 0.000000
      length 8.193716
      axis 0.0 0.0 -90.0 xyz
      dof ry rz rx
   end
   begin
      id 12
      name LeftHand
      direction 0.000000 0.000000 0.000000
      length 0.000000
      axis 0.0 0.0 -90.0 xyz
      dof rx ry rz
   end
   begin
      id 13
      name LeftHand_dum1
      direction 0.000000 0.000000 0.000000
      length 0.000000
      axis 0.0 0.0 -90.0 xyz
   end
   begin
      id 14
      name LeftHand_dum2
      direction 1.000000 0.000000 0.000000
      length 3.937000
      axis 0.0 0.0 -90.0 xyz
   end
   begin
      id 15
      name LeftHandThumb1
      direction 0.000000 0.000000 1.000000
      length 3.937000
      axis 0.0 0.0 -90.0 xyz
      dof rx rz ry
   end
   begin
      id 16
      name RightShoulder
      direction -1.000000 0.000000 0.000000
      length 7.058872
      axis 0.0 0.0 90.0 xyz
      dof rx ry rz
   end
   begin
      id 17
      name RightArm
      direction -1.000000 0.000000 0.000000
      length 10.955525
      axis 0.0 0.0 90.0 xyz
      dof rx ry rz
   end
   begin
      id 18
      name RightForeArm
      direction -1.000000 0.000000 0.000000
      length 8.193716
      axis 0.0 0.0 90.0 xyz
      dof ry rz rx
   end
   begin
      id 19
      name RightHand
      direction 0.000000 0.000000 0.000000
      length 0.000000
      axis 0.0 0.0 90.0 xyz
      dof rx ry rz
   end
   begin
      id 20
      name RightHand_dum1
      direction 0.000000 0.000000 0.000000
      length 0.000000
      axis 0.0 0.0 90.0 xyz
   end
   begin
      id 21
      name RightHand_dum2
      direction -1.000000 0.000000 0.000000
      length 3.937000
      axis 0.0 0.0 90.0 xyz
   end
   begin
      id 22
      name RightHandThumb1
      direction 0.000000 0.000000 1.000000
      length 3.937000
      axis 0.0 0.0 90.0 xyz
      dof rx rz ry
   end
   begin
      id 23
      name LeftUpLeg
      direction 0.000000 -1.000000 0.000000
      length 17.323638
      axis 0.0 0.0 0.0 xyz
      dof rx ry rz
   end
   begin
      id 24
      name LeftLeg
      direction 0.000000 -1.000000 0.000000
      length 16.270368
      axis 0.0 0.0 0.0 xyz
      dof rx ry rz
   end
   begin
      id 25
      name LeftFoot
      direction 0.000000 -0.258819 0.965926
      length 4.922846
      axis 15.0 0.0 0.0 xyz
      dof rx ry rz
   end
   begin
      id 26
      name LeftToeBase
      direction 0.000000 0.000000 1.000000
      length 2.952750
      axis 0.0 0.0 0.0 xyz
      dof rx ry rz
   end
   begin
      id 27
      name RightUpLeg
      direction 0.000000 -1.000000 0.000000
      length 17.323638
      axis 0.0 0.0 0.0 xyz
      dof rx ry rz
   end
   begin
      id 28
      name RightLeg
      direction 0.000000 -1.000000 0.000000
      length 16.270368
      axis 0.0 0.0 0.0 xyz
      dof rx ry rz
   end
   begin
      id 29
      name RightFoot
      direction 0.000000 -0.258819 0.965926
      length 4.922846
      axis 15.0 0.0 0.0 xyz
      dof rx ry rz
   end
   begin
      id 30
      name RightToeBase
      direction 0.000000 0.000000 1.000000
      length 2.952750
      axis 0.0 0.0 0.0 xyz
      dof rx ry rz
   end
:hierarchy
   begin
      root Spine_dum LeftUpLeg_dum RightUpLeg_dum
      Spine_dum Spine
      LeftUpLeg_dum LeftUpLeg
      RightUpLeg_dum RightUpLeg
      Spine Spine_dum1 Spine_dum2 Spine_dum3
      Spine_dum1 Head
      Spine_dum2 LeftShoulder
      Spine_dum3 RightShoulder
      LeftShoulder LeftArm
      LeftArm LeftForeArm
      LeftForeArm LeftHand
      LeftHand LeftHand_dum1 LeftHand_dum2
      LeftHand_dum1 LeftHandThumb1
      RightShoulder RightArm
      RightArm RightForeArm
      RightForeArm RightHand
      RightHand RightHand_dum1 RightHand_dum2
      RightHand_dum1 RightHandThumb1
      LeftUpLeg LeftLeg
      LeftLeg LeftFoot
      LeftFoot LeftToeBase
      RightUpLeg RightLeg
      RightLeg RightFoot
      RightFoot RightToeBase
   end

# File created by Blade
# Date/Time:  Fri Jan 16 15:45:48 2015
# Frame Rate: 120.000 fps
#------------------------------------------------------
:FULLY-SPECIFIED
:DEGREES
965
root -5.450346 35.317124 -10.292042 0.416275 -0.058722 -4.179422
Spine -5.917485 0.891271 2.763603
Head -4.016934 -2.086579 -3.761025
LeftShoulder -21.529876 9.578552 -16.169260
LeftArm 21.015354 16.628916 -67.726300
LeftForeArm 15.962139 0.000000 12.443177
LeftHand 2.132957 0.000000 -8.411049
LeftHandThumb1 -26.253704 0.000000 33.147579
RightShoulder -9.067839 23.686687 -49.236191
RightArm 24.017028 28.781849 -11.710750
RightForeArm -58.940551 0.000000 95.708487
RightHand 4.470930 -0.000000 -32.329930
RightHandThumb1 -24.326973 -0.000000 -32.862282
LeftUpLeg 7.633971 12.114684 5.185557
LeftLeg -8.922104 -0.000000 0.000000
LeftFoot -13.245416 23.875435 -10.079665
LeftToeBase 21.679722 -0.000000 -0.000000
RightUpLeg 6.481272 -9.309852 0.800309
RightLeg -4.542448 -0.000000 0.000000
RightFoot -5.251450 -25.907430 7.086715
RightToeBase 12.280841 -0.000000 -0.000000
966
root -5.449830 35.317832 -10.294826 0.387905 -0.101121 -4.175607
Spine -5.896337 0.942897 2.743775
Head -3.956342 -2.188483 -3.768954
LeftShoulder -21.507546 9.584820 -16.180751
LeftArm 21.012500 16.591605 -67.718316
LeftForeArm 15.944805 -0.000000 12.481245
LeftHand 2.132764 -0.000000 -8.383324
LeftHandThumb1 -26.253704 0.000000 33.147579
RightShoulder -8.961639 23.647599 -49.228474
RightArm 24.183963 28.663465 -11.576603
RightForeArm -59.081892 -0.000000 95.978007
RightHand 4.485374 -0.000000 -32.850987
RightHandThumb1 -24.326973 -0.000000 -32.862282
LeftUpLeg 7.664637 12.135892 5.186102
LeftLeg -8.915508 -0.000000 0.000000
LeftFoot -13.243404 23.893293 -10.083404
LeftToeBase 21.688234 -0.000000 -0.000000
RightUpLeg 6.497897 -9.286842 0.791228
RightLeg -4.539696 -0.000000 0.000000
RightFoot -5.235386 -25.897636 7.075866
RightToeBase 12.255231 -0.000000 -0.000000
967
root -5.450143 35.318901 -10.298459 0.362764 -0.129352 -4.173488
Spine -5.869036 0.978649 2.733428
Head -3.939642 -2.263156 -3.775306
LeftShoulder -21.511199 9.569555 -16.206102
LeftArm 21.042381 16.589174 -67.678134
LeftForeArm 15.905511 -0.000000 12.477295
LeftHand 2.125278 -0.000000 -8.419060
LeftHandThumb1 -26.253704 0.000000 33.147579
RightShoulder -8.892500 23.671659 -49.261368
RightArm 24.460788 28.623755 -11.313257
RightForeArm -59.116162 0.000000 96.337830
RightHand 4.341603 -0.000000 -32.410936
RightHandThumb1 -24.326973 -0.000000 -32.862282
LeftUpLeg 7.684069 12.153188 5.188821
LeftLeg -8.903726 -0.000000 0.000000
LeftFoot -13.255100 23.897843 -10.114922
LeftToeBase 21.697550 -0.000000 -0.000000
RightUpLeg 6.510323 -9.289130 0.783320
RightLeg -4.531932 -0.000000 0.000000
RightFoot -5.235198 -25.862213 7.086706
RightToeBase 12.247149 -0.000000 -0.000000
968
root -5.450089 35.319871 -10.301576 0.336915 -0.168511 -4.171779
Spine -5.847820 1.036755 2.718916
Head -3.900471 -2.365611 -3.777893
LeftShoulder -21.504780 9.572801 -16.234251
LeftArm 21.070494 16.588203 -67.639114
LeftForeArm 15.877362 -0.000000 12.488940
LeftHand 2.138863 -0.000000 -8.391049
LeftHandThumb1 -26.253704 0.000000 33.147579
RightShoulder -8.792260 23.709468 -49.240746
RightArm 24.706028 28.603913 -11.139578
RightForeArm -59.079660 -0.000000 96.630087
RightHand 4.215761 -0.000000 -31.920528
RightHandThumb1 -24.326973 -0.000000 -32.862282
LeftUpLeg 7.706899 12.191554 5.193134
LeftLeg -8.892201 -0.000000 0.000000
LeftFoot -13.265648 23.885023 -10.130720
LeftToeBase 21.722757 -0.000000 -0.000000
RightUpLeg 6.524331 -9.275379 0.775705
RightLeg -4.530900 -0.000000 0.000000
RightFoot -5.202291 -25.830484 7.084608
RightToeBase 12.378235 -0.000000 -0.000000
969
root -5.450758 35.320551 -10.305437 0.321474 -0.197651 -4.176654
Spine -5.824963 1.090874 2.709858
Head -3.899056 -2.451011 -3.781437
LeftShoulder -21.508907 9.559149 -16.256818
LeftArm 21.092766 16.560996 -67.620221
LeftForeArm 15.883466 -0.000000 12.505311
LeftHand 2.114753 -0.000000 -8.402972
LeftHandThumb1 -26.253704 0.000000 33.147579
RightShoulder -8.736485 23.736517 -49.214565
RightArm 25.010218 28.594160 -11.016180
RightForeArm -58.952357 -0.000000 96.720070
RightHand 4.338907 0.000000 -31.972587
RightHandThumb1 -24.326973 -0.000000 -32.862282
LeftUpLeg 7.719712 12.193833 5.201447
LeftLeg -8.885716 -0.000000 0.000000
LeftFoot -13.254759 23.916823 -10.123094
LeftToeBase 21.688461 -0.000000 -0.000000
RightUpLeg 6.530961 -9.260652 0.781423
RightLeg -4.531145 -0.000000 0.000000
RightFoot -5.186004 -25.825176 7.045979
RightToeBase 12.258932 -0.000000 -0.000000
970
root -5.452215 35.320402 -10.308710 0.305219 -0.226933 -4.179705
Spine -5.800048 1.142612 2.696458
Head -3.898704 -2.523339 -3.789938
LeftShoulder -21.529299 9.517085 -16.257992
LeftArm 21.112275 16.608986 -67.590051
LeftForeArm 15.830715 -0.000000 12.487065
LeftHand 2.140983 -0.000000 -8.386958
LeftHandThumb1 -26.253704 0.000000 33.147579
RightShoulder -8.684441 23.779696 -49.196823
RightArm 25.279453 28.649609 -10.791963
RightForeArm -58.743048 0.000000 96.909234
RightHand 4.401283 -0.000000 -31.678526
RightHandThumb1 -24.326973 -0.000000 -32.862282
LeftUpLeg 7.729863 12.219562 5.210731
LeftLeg -8.869702 -0.000000 0.000000
LeftFoot -13.270146 23.915097 -10.113169
LeftToeBase 21.699944 -0.000000 -0.000000
RightUpLeg 6.542093 -9.252044 0.783059
RightLeg -4.540597 -0.000000 0.000000
RightFoot -5.163794 -25.804432 7.059021
RightToeBase 12.138632 -0.000000 -0.000000
971
root -5.451674 35.320345 -10.312257 0.301132 -0.268556 -4.185782
Spine -5.790594 1.219164 2.693360
Head -3.893868 -2.591501 -3.809227
LeftShoulder -21.530985 9.539419 -16.278729
LeftArm 21.156186 16.615047 -67.562798
LeftForeArm 15.817005 -0.000000 12.516602
LeftHand 2.119878 -0.000000 -8.400802
LeftHandThumb1 -26.253704 0.000000 33.147579
RightShoulder -8.616131 23.772302 -49.196313
RightArm 25.443391 28.709963 -10.638098
RightForeArm -58.620267 -0.000000 97.066489
RightHand 4.329019 -0.000000 -31.709747
RightHandThumb1 -24.326973 -0.000000 -32.862282
LeftUpLeg 7.741379 12.249011 5.216420
LeftLeg -8.879189 -0.000000 0.000000
LeftFoot -13.265115 23.924591 -10.118778
LeftToeBase 21.660427 -0.000000 -0.000000
RightUpLeg 6.535504 -9.226219 0.786913
RightLeg -4.541067 -0.000000 0.000000
RightFoot -5.156236 -25.785721 7.075216
RightToeBase 12.160593 -0.000000 -0.000000
972
root -5.452115 35.320391 -10.317444 0.295987 -0.292982 -4.189861
Spine -5.768764 1.296566 2.681903
Head -3.909995 -2.654945 -3.824230
LeftShoulder -21.510636 9.534214 -16.285183
LeftArm 21.181432 16.604378 -67.551556
LeftForeArm 15.809829 0.000000 12.517850
LeftHand 2.137922 0.000000 -8.420587
LeftHandThumb1 -26.253704 0.000000 33.147579
RightShoulder -8.570693 23.775606 -49.211966
RightArm 25.580786 28.824334 -10.448480
RightForeArm -58.499733 -0.000000 97.242925
RightHand 4.630937 0.000000 -31.501441
RightHandThumb1 -24.326973 -0.000000 -32.862282
LeftUpLeg 7.740720 12.238151 5.218255
LeftLeg -8.873990 -0.000000 0.000000
LeftFoot -13.270313 23.968075 -10.088544
LeftToeBase 21.700279 -0.000000 -0.000000
RightUpLeg 6.531907 -9.223595 0.790296
RightLeg -4.545928 -0.000000 0.000000
RightFoot -5.134756 -25.773514 6.993363
RightToeBase 12.250438 -0.000000 -0.000000
973
root -5.450152 35.319972 -10.321927 0.297599 -0.332193 -4.192364
Spine -5.738352 1.380888 2.677228
Head -3.966595 -2.699882 -3.852550
LeftShoulder -21.527550 9.492380 -16.296959
LeftArm 21.189237 16.613579 -67.544504
LeftForeArm 15.843376 0.000000 12.544293
LeftHand 2.064738 -0.000000 -8.476940
LeftHandThumb1 -26.253704 0.000000 33.147579
RightShoulder -8.538143 23.715845 -49.225087
RightArm 25.663903 29.085133 -10.196387
RightForeArm -58.362465 -0.000000 97.453909
RightHand 4.917780 -0.000000 -31.625465
RightHandThumb1 -24.326973 -0.000000 -32.862282
LeftUpLeg 7.743110 12.274759 5.215203
LeftLeg -8.882129 -0.000000 0.000000
LeftFoot -13.257054 23.983816 -10.075053
LeftToeBase 21.652622 -0.000000 -0.000000
RightUpLeg 6.510122 -9.262763 0.786536
RightLeg -4.531576 -0.000000 0.000000
RightFoot -5.114200 -25.704828 6.954043
RightToeBase 12.238737 -0.000000 -0.000000
974
root -5.451257 35.320131 -10.326707 0.294104 -0.347504 -4.197863
Spine -5.710430 1.437927 2.667991
Head -3.997075 -2.750257 -3.872273
LeftShoulder -21.506760 9.485544 -16.301831
LeftArm 21.198319 16.611111 -67.524657
LeftForeArm 15.798236 0.000000 12.575093
LeftHand 2.109693 0.000000 -8.484701
LeftHandThumb1 -26.253704 0.000000 33.147579
RightShoulder -8.505745 23.744098 -49.222344
RightArm 25.785875 29.222925 -10.002273
RightForeArm -58.328056 -0.000000 97.618413
RightHand 4.749056 0.000000 -31.843911
RightHandThumb1 -24.326973 -0.000000 -32.862282
LeftUpLeg 7.744040 12.270123 5.220662
LeftLeg -8.886821 -0.000000 0.000000
LeftFoot -13.267111 24.010731 -10.072727
LeftToeBase 21.722017 -0.000000 -0.000000
RightUpLeg 6.510534 -9.264494 0.792097
RightLeg -4.543278 -0.000000 0.000000
RightFoot -5.103506 -25.686186 6.965353
RightToeBase 12.251320 -0.000000 -0.000000
975
root -5.452631 35.320349 -10.331368 0.297847 -0.359439 -4.200773
Spine -5.678523 1.506259 2.640245
Head -4.064382 -2.796630 -3.859282
LeftShoulder -21.502329 9.476922 -16.292757
LeftArm 21.225556 16.607011 -67.512351
LeftForeArm 15.890914 -0.000000 12.606668
LeftHand 2.088632 -0.000000 -8.251834
LeftHandThumb1 -26.253704 0.000000 33.147579
RightShoulder -8.522347 23.804587 -49.226032
RightArm 25.901909 29.398892 -9.737782
RightForeArm -58.227162 -0.000000 97.785868
RightHand 4.757881 -0.000000 -32.140216
RightHandThumb1 -24.326973 -0.000000 -32.862282
LeftUpLeg 7.744872 12.257114 5.222473
LeftLeg -8.905953 -0.000000 0.000000
LeftFoot -13.242507 24.035819 -10.064072
LeftToeBase 21.720542 -0.000000 -0.000000
RightUpLeg 6.513401 -9.233880 0.799131
RightLeg -4.577203 -0.000000 0.000000
RightFoot -5.070818 -25.700505 7.002767
RightToeBase 12.161855 -0.000000 -0.000000
